PathFileType	4	(X/Y/Z)	output.trc
DataRate	CameraRate	NumFrames	NumMarkers	Units	OrigDataRate	OrigDataStartFrame	OrigNumFrames
30	30	16	17	m	30	1	1089
Frame#	Time	root		right_hip		right_knee		right_ankle		left_hip		left_knee		left_ankle		torso		thorax		neck		head		left_shoulder		left_elbow		left_wrist		right_shoulder		right_elbow		right_wrist
		X1	Y1	Z1	X2	Y2	Z2	X3	Y3	Z3	X4	Y4	Z4	X5	Y5	Z5	X6	Y6	Z6	X7	Y7	Z7	X8	Y8	Z8	X9	Y9	Z9	X10	Y10	Z10	X11	Y11	Z11	X12	Y12	Z12	X13	Y13	Z13	X14	Y14	Z14	X15	Y15	Z15	X16	Y16	Z16	X17	Y17	Z17

1.0	0.000000	0.000164	-0.000027	0.815971	0.017618	0.068302	0.806681	-0.003126	0.087908	0.430314	-0.102426	0.175450	0.000000	-0.017614	-0.068302	0.825295	-0.051563	-0.015061	0.427018	-0.158806	0.034344	0.009780	-0.007054	-0.001487	1.051166	-0.005418	-0.006523	1.313886	0.162619	0.007146	1.402499	0.186343	0.032766	1.464664	-0.021375	-0.067569	1.265833	-0.057421	-0.070967	0.995369	-0.035891	-0.024119	0.779601	-0.024053	0.069225	1.273561	-0.091956	0.192808	1.041684	0.044378	0.229363	1.061418
2.0	0.033333	0.000164	-0.000028	0.814419	0.018204	0.068015	0.804424	-0.005772	0.086074	0.427532	-0.099249	0.177198	0.000000	-0.018199	-0.068014	0.824445	-0.049474	-0.016607	0.429898	-0.158213	0.027833	0.008826	-0.006177	-0.000202	1.049557	-0.003100	-0.005716	1.312229	0.161279	0.004840	1.400835	0.185529	0.032900	1.462884	-0.023902	-0.066523	1.263619	-0.062191	-0.067679	0.994203	-0.032386	-0.021166	0.779474	-0.016547	0.070350	1.272753	-0.079659	0.193301	1.039549	0.052779	0.216786	1.064302
3.0	0.066667	0.000163	-0.000028	0.814629	0.017149	0.065517	0.804830	-0.007114	0.084980	0.429820	-0.100472	0.173365	0.000000	-0.017145	-0.065517	0.824460	-0.054058	-0.013370	0.428887	-0.158174	0.034429	0.010628	-0.006685	-0.001939	1.050361	-0.004705	-0.007994	1.312960	0.159918	0.003767	1.401385	0.189657	0.030081	1.464166	-0.022832	-0.065977	1.264295	-0.060628	-0.067829	0.993717	-0.035190	-0.021048	0.779006	-0.020177	0.065416	1.273428	-0.079589	0.189678	1.041105	0.044817	0.219209	1.061119
4.0	0.100000	0.000164	-0.000027	0.816460	0.016780	0.068156	0.806380	-0.004380	0.088448	0.428361	-0.098159	0.180358	0.000000	-0.016777	-0.068156	0.826572	-0.049910	-0.015699	0.429627	-0.155512	0.030135	0.008659	-0.006413	-0.001389	1.051523	-0.003132	-0.006969	1.313852	0.163855	0.006384	1.402221	0.189274	0.032321	1.464395	-0.019846	-0.068132	1.265176	-0.056353	-0.070321	0.996223	-0.033834	-0.022721	0.778489	-0.020674	0.069465	1.274401	-0.086240	0.196159	1.045774	0.048167	0.227286	1.054521
5.0	0.133333	0.000163	-0.000027	0.814121	0.018135	0.067852	0.804264	-0.005514	0.085757	0.426898	-0.098999	0.177591	0.000000	-0.018132	-0.067851	0.824009	-0.049609	-0.018317	0.429261	-0.157391	0.024848	0.008539	-0.005889	-0.000382	1.049791	-0.001914	-0.005533	1.312501	0.161667	0.003833	1.399994	0.186641	0.031188	1.462821	-0.022452	-0.066006	1.265324	-0.058384	-0.064528	0.996818	-0.033042	-0.015969	0.781766	-0.015558	0.070738	1.272591	-0.076959	0.196572	1.041504	0.056993	0.218928	1.063101
6.0	0.166667	0.000164	-0.000027	0.815780	0.017184	0.068371	0.805994	-0.006068	0.088474	0.428539	-0.104445	0.179093	0.000000	-0.017180	-0.068370	0.825600	-0.053629	-0.014921	0.428615	-0.159693	0.030020	0.007716	-0.008424	-0.001281	1.049977	-0.006888	-0.007128	1.312926	0.160127	0.006040	1.400866	0.184105	0.031681	1.463248	-0.024157	-0.068083	1.264029	-0.060549	-0.069593	0.994727	-0.037482	-0.022702	0.776872	-0.023505	0.069309	1.273615	-0.088276	0.196890	1.046104	0.048430	0.228986	1.053467
7.0	0.200000	0.000164	-0.000028	0.819019	0.017355	0.068511	0.809275	-0.006010	0.089605	0.432205	-0.102089	0.175770	0.000000	-0.017350	-0.068509	0.828794	-0.053254	-0.014621	0.431314	-0.159516	0.028606	0.008853	-0.007619	-0.000606	1.052592	-0.005582	-0.006363	1.314821	0.160354	0.006850	1.402881	0.184368	0.032607	1.464575	-0.023445	-0.067472	1.265224	-0.059006	-0.070578	0.994977	-0.036383	-0.024098	0.778848	-0.020977	0.069426	1.274424	-0.085838	0.192445	1.043095	0.049170	0.221096	1.056100
8.0	0.233333	0.000164	-0.000027	0.816023	0.016817	0.067739	0.805986	-0.004752	0.087296	0.428137	-0.098137	0.178111	0.000000	-0.016814	-0.067739	0.826091	-0.049261	-0.015988	0.429733	-0.152920	0.027901	0.008654	-0.005521	-0.001241	1.051870	0.000059	-0.006361	1.313991	0.164547	0.005093	1.401842	0.192449	0.030679	1.463942	-0.017993	-0.067243	1.266330	-0.055455	-0.070763	0.996782	-0.032941	-0.024928	0.776809	-0.016519	0.070021	1.273878	-0.077951	0.198656	1.045227	0.058753	0.223556	1.059208
9.0	0.266667	0.000164	-0.000027	0.817118	0.017343	0.068231	0.807412	-0.006500	0.089039	0.426958	-0.100465	0.181193	0.000000	-0.017339	-0.068230	0.826857	-0.052802	-0.013490	0.428457	-0.159952	0.031117	0.009296	-0.007408	-0.001169	1.052192	-0.003688	-0.007544	1.314747	0.161144	0.004301	1.403008	0.187463	0.030015	1.465518	-0.023016	-0.068081	1.266226	-0.060297	-0.069481	0.997156	-0.035777	-0.022699	0.779257	-0.018748	0.068971	1.275396	-0.082902	0.197174	1.047363	0.056889	0.221881	1.063504
10.0	0.300000	0.000164	-0.000027	0.812238	0.018340	0.066580	0.802028	-0.005737	0.084447	0.423275	-0.096539	0.183302	0.000000	-0.018336	-0.066580	0.822477	-0.049633	-0.016913	0.426995	-0.155342	0.028462	0.009807	-0.003140	-0.001130	1.049554	0.002852	-0.005929	1.312339	0.165854	0.001898	1.400132	0.192292	0.029628	1.462976	-0.018448	-0.065068	1.265857	-0.055045	-0.062699	0.997702	-0.034833	-0.013374	0.782995	-0.010582	0.069439	1.272641	-0.075550	0.192833	1.039748	0.056928	0.219135	1.059396
11.0	0.333333	0.000163	-0.000027	0.818091	0.016554	0.068225	0.807907	-0.005475	0.085370	0.429662	-0.096299	0.174212	0.000000	-0.016551	-0.068225	0.828305	-0.045657	-0.015453	0.433476	-0.152716	0.027120	0.011838	-0.004498	-0.000516	1.053881	0.002089	-0.005630	1.315928	0.163254	0.004608	1.404207	0.191281	0.031089	1.466250	-0.017230	-0.067392	1.267661	-0.055277	-0.071171	0.997661	-0.031926	-0.022968	0.781170	-0.013068	0.070772	1.275998	-0.076968	0.195129	1.044539	0.054185	0.218794	1.054426
12.0	0.366667	0.000164	-0.000027	0.816678	0.017445	0.066298	0.806289	-0.005940	0.084728	0.427820	-0.093915	0.177069	0.000000	-0.017442	-0.066298	0.827095	-0.045559	-0.015450	0.432350	-0.154032	0.026755	0.010480	-0.004116	-0.000442	1.052494	0.001947	-0.005265	1.314487	0.164174	0.004756	1.402628	0.192657	0.033525	1.462757	-0.017768	-0.064910	1.267263	-0.052873	-0.068149	0.996923	-0.028422	-0.021497	0.780417	-0.012050	0.068826	1.274464	-0.073679	0.190316	1.039873	0.054670	0.212744	1.055091
13.0	0.400000	0.000164	-0.000027	0.813815	0.016630	0.068537	0.804169	-0.005320	0.087615	0.424121	-0.095481	0.184799	0.000000	-0.016627	-0.068537	0.823489	-0.048423	-0.015574	0.427915	-0.155807	0.029157	0.010043	-0.003524	-0.001589	1.050767	0.003935	-0.006397	1.313215	0.168470	0.002814	1.401407	0.194085	0.029306	1.463411	-0.015849	-0.068468	1.265540	-0.052435	-0.070293	0.995362	-0.033062	-0.020665	0.780318	-0.011662	0.071061	1.273655	-0.075655	0.197693	1.042488	0.061618	0.221439	1.058618
14.0	0.433333	0.000165	-0.000027	0.813223	0.019007	0.066199	0.803321	-0.005638	0.082706	0.423913	-0.095144	0.180914	0.000000	-0.019002	-0.066198	0.823154	-0.050573	-0.014601	0.428142	-0.157489	0.034477	0.012355	-0.003125	-0.001021	1.050442	0.002836	-0.005432	1.313253	0.165315	0.002705	1.401759	0.192042	0.031239	1.463163	-0.018717	-0.065424	1.267069	-0.055932	-0.067015	0.996688	-0.029992	-0.020090	0.780862	-0.010020	0.069483	1.273344	-0.071210	0.192422	1.038003	0.058160	0.213681	1.061648
15.0	0.466667	0.000164	-0.000027	0.816713	0.016827	0.068175	0.806615	-0.005223	0.087592	0.427744	-0.098388	0.178831	0.000000	-0.016824	-0.068175	0.826842	-0.048659	-0.015236	0.429683	-0.153291	0.029568	0.010052	-0.003625	-0.001442	1.053059	0.003426	-0.006503	1.315187	0.167364	0.003631	1.403431	0.193695	0.029703	1.465602	-0.016669	-0.067792	1.267452	-0.055661	-0.070672	0.998131	-0.032385	-0.024533	0.779494	-0.011605	0.070085	1.274868	-0.073791	0.195080	1.043547	0.054387	0.217289	1.061049
16.0	0.500000	0.000166	-0.000027	0.815612	0.018376	0.067348	0.804492	-0.003697	0.084791	0.425957	-0.096914	0.178665	0.000000	-0.018372	-0.067347	0.826760	-0.046555	-0.017208	0.431646	-0.153129	0.026214	0.010414	-0.002451	-0.000638	1.051405	0.004644	-0.004874	1.313629	0.171030	0.005710	1.400604	0.197662	0.033390	1.460354	-0.015812	-0.065924	1.266299	-0.053022	-0.069096	0.997122	-0.030500	-0.025237	0.777098	-0.009665	0.070631	1.275101	-0.071218	0.191435	1.039287	0.059916	0.217492	1.052168
